<?xml version="1.0" standalone="no"?>
<!DOCTYPE svg PUBLIC "-//W3C//DTD SVG 20010904//EN"
 "http://www.w3.org/TR/2001/REC-SVG-20010904/DTD/svg10.dtd">
<svg version="1.0" xmlns="http://www.w3.org/2000/svg"
 width="64.000000pt" height="64.000000pt" viewBox="0 0 64.000000 64.000000"
 preserveAspectRatio="xMidYMid meet">

<g transform="translate(0.000000,64.000000) scale(0.100000,-0.100000)"
fill="#000000" stroke="none">
<path d="M245 631 c-92 -24 -173 -90 -215 -176 -34 -69 -35 -198 -2 -265 34
-71 75 -114 144 -151 58 -31 70 -34 148 -33 72 0 93 4 136 26 75 40 107 70
145 140 31 58 34 70 34 148 0 78 -3 90 -34 148 -57 104 -144 160 -260 167 -36
2 -79 1 -96 -4z m175 -266 c-47 -47 -92 -85 -100 -85 -8 0 -53 38 -100 85
l-85 85 185 0 185 0 -85 -85z m-190 -50 c0 -6 -25 -35 -55 -65 l-55 -54 0 119
0 119 55 -54 c30 -30 55 -59 55 -65z m290 -2 l0 -117 -55 54 c-30 30 -55 59
-55 64 0 9 99 116 107 116 2 0 3 -53 3 -117z m-200 -53 c13 0 33 9 45 20 l21
20 54 -55 54 -55 -174 0 -174 0 54 55 54 55 21 -20 c12 -11 32 -20 45 -20z"/>
</g>
</svg>
