<svg version="1.1" id="Layer_1" xmlns="http://www.w3.org/2000/svg" xmlns:xlink="http://www.w3.org/1999/xlink" x="0px" y="0px"
	 width="100%" viewBox="0 0 64 64" enable-background="new 0 0 64 64" xml:space="preserve">
<path fill="#030303" opacity="1.000000" stroke="none" 
	d="
M38.000004,65.000000 
	C25.357141,65.000000 13.214283,65.000000 1.035712,65.000000 
	C1.035712,43.732269 1.035712,22.464466 1.035712,1.098330 
	C22.225628,1.098330 43.451866,1.098330 64.839050,1.098330 
	C64.839050,22.332355 64.839050,43.666069 64.839050,65.000000 
	C56.132076,65.000000 47.316044,65.000000 38.000004,65.000000 
M51.333076,49.793442 
	C58.711926,40.303837 59.517185,29.341373 53.508179,20.182491 
	C47.640343,11.238790 36.889091,7.181567 26.467800,9.978207 
	C16.291216,12.709177 9.096211,21.801403 8.540847,32.632244 
	C7.952027,44.115543 16.746641,55.775585 26.723431,56.437305 
	C26.723431,54.827011 26.723431,53.226357 26.723431,52.406944 
	C23.622477,50.983730 20.857307,49.714630 18.092136,48.445530 
	C18.281399,47.900806 18.470659,47.356087 18.659920,46.811367 
	C21.900835,46.936195 26.363106,51.504555 27.818319,44.690208 
	C19.823555,42.078903 16.570324,38.216221 17.480415,31.665436 
	C18.056145,27.521364 19.406816,23.484955 20.150295,20.457443 
	C28.834553,20.457443 37.261978,20.457443 46.098145,20.457443 
	C46.261513,21.848230 46.109581,24.409264 46.901722,26.634176 
	C50.417873,36.510151 48.324097,41.090191 38.519329,44.649818 
	C38.824013,48.750763 39.121220,52.751007 39.536526,58.340862 
	C44.010689,55.189655 47.443317,52.772018 51.333076,49.793442 
z"/>
<path fill="#F6F6F6" opacity="1.000000" stroke="none" 
	d="
M51.104515,50.073910 
	C47.443317,52.772018 44.010689,55.189655 39.536526,58.340862 
	C39.121220,52.751007 38.824013,48.750763 38.519329,44.649818 
	C48.324097,41.090191 50.417873,36.510151 46.901722,26.634176 
	C46.109581,24.409264 46.261513,21.848230 46.098145,20.457443 
	C37.261978,20.457443 28.834553,20.457443 20.150295,20.457443 
	C19.406816,23.484955 18.056145,27.521364 17.480415,31.665436 
	C16.570324,38.216221 19.823555,42.078903 27.818319,44.690208 
	C26.363106,51.504555 21.900835,46.936195 18.659920,46.811367 
	C18.470659,47.356087 18.281399,47.900806 18.092136,48.445530 
	C20.857307,49.714630 23.622477,50.983730 26.723431,52.406944 
	C26.723431,53.226357 26.723431,54.827011 26.723431,56.437305 
	C16.746641,55.775585 7.952027,44.115543 8.540847,32.632244 
	C9.096211,21.801403 16.291216,12.709177 26.467800,9.978207 
	C36.889091,7.181567 47.640343,11.238790 53.508179,20.182491 
	C59.517185,29.341373 58.711926,40.303837 51.104515,50.073910 
z"/>
</svg>