<svg version="1.1" id="Layer_1" xmlns="http://www.w3.org/2000/svg" xmlns:xlink="http://www.w3.org/1999/xlink" x="0px" y="0px"
	 width="100%" viewBox="0 0 64 64" enable-background="new 0 0 64 64" xml:space="preserve">
<path fill="#1A202C" opacity="1.000000" stroke="none" 
	d="
M1.000000,59.000000 
	C1.000000,41.979103 1.000000,24.958210 1.326207,7.387533 
	C3.434942,4.891835 5.217471,2.945917 7.000000,1.000000 
	C24.020895,1.000000 41.041790,1.000000 58.612484,1.326201 
	C61.108192,3.434934 63.054096,5.217466 65.000000,6.999999 
	C65.000000,24.020895 65.000000,41.041790 64.673897,58.612648 
	C62.565197,61.108410 60.782597,63.054207 59.000000,65.000000 
	C41.979103,65.000000 24.958210,65.000000 7.387531,64.673790 
	C4.891832,62.565052 2.945917,60.782524 1.000000,59.000000 
M29.459232,29.948612 
	C31.155090,30.526058 33.663860,32.112019 34.409691,31.510841 
	C38.149078,28.496708 41.427074,24.910164 44.867207,21.524771 
	C44.615242,21.177582 44.363274,20.830393 44.111305,20.483204 
	C36.679447,20.483204 29.247591,20.483204 21.815733,20.483204 
	C21.600065,20.846533 21.384399,21.209860 21.168732,21.573189 
	C23.769564,24.204287 26.370396,26.835386 29.459232,29.948612 
M32.084717,39.037144 
	C27.125502,35.760040 23.934164,37.131664 22.032953,43.359058 
	C29.457628,43.359058 36.882301,43.359058 44.700260,43.359058 
	C40.113354,36.346558 39.693825,36.219532 32.084717,39.037144 
M20.004089,36.493702 
	C24.585293,31.615101 23.031807,27.742414 14.664611,23.712440 
	C14.664611,29.336699 14.664611,34.820461 14.664611,41.483765 
	C16.921984,39.389652 18.224575,38.181271 20.004089,36.493702 
M52.000912,30.646618 
	C51.834301,28.304846 51.667686,25.963072 51.472885,23.225115 
	C40.762676,30.174778 40.844395,34.941788 52.001144,40.714958 
	C52.001144,37.342953 52.001144,34.446815 52.000912,30.646618 
z"/>
<path fill="#000000" opacity="1.000000" stroke="none" 
	d="
M6.500528,1.000000 
	C5.217471,2.945917 3.434942,4.891835 1.326207,6.918876 
	C1.000000,5.086773 1.000000,3.173546 1.000000,1.000000 
	C2.663430,1.000000 4.332244,1.000000 6.500528,1.000000 
z"/>
<path fill="#000000" opacity="1.000000" stroke="none" 
	d="
M65.000000,6.500528 
	C63.054096,5.217466 61.108192,3.434934 59.081142,1.326201 
	C60.913227,1.000000 62.826458,1.000000 65.000000,1.000000 
	C65.000000,2.663430 65.000000,4.332244 65.000000,6.500528 
z"/>
<path fill="#000000" opacity="1.000000" stroke="none" 
	d="
M1.000000,59.499470 
	C2.945917,60.782524 4.891832,62.565052 6.918874,64.673790 
	C5.086772,65.000000 3.173544,65.000000 1.000000,65.000000 
	C1.000000,63.336567 1.000000,61.667755 1.000000,59.499470 
z"/>
<path fill="#000000" opacity="1.000000" stroke="none" 
	d="
M59.499470,65.000000 
	C60.782597,63.054207 62.565197,61.108410 64.673897,59.081306 
	C65.000000,60.913227 65.000000,62.826458 65.000000,65.000000 
	C63.336567,65.000000 61.667755,65.000000 59.499470,65.000000 
z"/>
<path fill="#000000" opacity="1.000000" stroke="none" 
	d="
M29.215229,29.707548 
	C26.370396,26.835386 23.769564,24.204287 21.168732,21.573189 
	C21.384399,21.209860 21.600065,20.846533 21.815733,20.483204 
	C29.247591,20.483204 36.679447,20.483204 44.111305,20.483204 
	C44.363274,20.830393 44.615242,21.177582 44.867207,21.524771 
	C41.427074,24.910164 38.149078,28.496708 34.409691,31.510841 
	C33.663860,32.112019 31.155090,30.526058 29.215229,29.707548 
z"/>
<path fill="#000000" opacity="1.000000" stroke="none" 
	d="
M32.387932,39.122608 
	C39.693825,36.219532 40.113354,36.346558 44.700260,43.359058 
	C36.882301,43.359058 29.457628,43.359058 22.027250,43.360657 
	C23.934164,37.131664 27.125502,35.760040 32.387932,39.122608 
z"/>
<path fill="#000000" opacity="1.000000" stroke="none" 
	d="
M19.765629,36.733292 
	C18.224575,38.181271 16.921984,39.389652 14.664611,41.483765 
	C14.664611,34.820461 14.664611,29.336699 14.664611,23.712440 
	C23.031807,27.742414 24.585293,31.615101 19.765629,36.733292 
z"/>
<path fill="#000000" opacity="1.000000" stroke="none" 
	d="
M52.001030,31.098648 
	C52.001144,34.446815 52.001144,37.342953 52.001144,40.714958 
	C40.844395,34.941788 40.762676,30.174778 51.472885,23.225115 
	C51.667686,25.963072 51.834301,28.304846 52.001030,31.098648 
z"/>
</svg>