<svg version="1.1" id="Layer_1" xmlns="http://www.w3.org/2000/svg" xmlns:xlink="http://www.w3.org/1999/xlink" x="0px" y="0px"
	 width="100%" viewBox="0 0 64 64" enable-background="new 0 0 64 64" xml:space="preserve">
<path fill="#000000" opacity="1.000000" stroke="none" 
	d="
M1.000000,25.000038 
	C1.000000,16.666723 1.000000,8.833391 1.000000,1.000045 
	C22.333311,1.000030 43.666622,1.000030 64.999954,1.000015 
	C64.999969,22.333305 64.999969,43.666611 64.999985,64.999939 
	C43.666698,64.999954 22.333395,64.999954 1.000047,64.999977 
	C1.000000,51.833340 1.000000,38.666683 1.000000,25.000038 
M39.455826,54.000000 
	C32.800568,53.999992 26.144974,54.041328 19.490160,53.986923 
	C14.146723,53.943241 12.051645,51.899670 12.016491,46.618038 
	C11.956693,37.633873 11.970463,28.648888 12.010880,19.664507 
	C12.035916,14.099008 14.115379,12.054818 19.706646,12.007520 
	C24.121704,11.970171 28.537329,12.000010 32.846382,12.000010 
	C32.846382,9.690056 32.846382,8.064450 32.846382,6.002571 
	C26.756247,6.002571 20.801401,5.822361 14.863708,6.063869 
	C10.678798,6.234085 6.063717,11.392056 6.030264,15.722702 
	C5.941587,27.202293 5.939406,38.683495 6.028944,50.163071 
	C6.066637,54.995743 10.933990,59.925453 15.745539,59.967480 
	C27.224939,60.067749 38.706169,60.052441 50.185898,59.973015 
	C54.548256,59.942833 59.744411,55.419540 59.929863,51.227276 
	C60.192707,45.285507 59.996544,39.323437 59.996544,33.189365 
	C57.880840,33.189365 56.144398,33.189365 54.000000,33.189365 
	C54.000000,35.632748 54.000008,37.922501 54.000004,40.212257 
	C53.999966,53.934212 53.935249,54.000000 39.455826,54.000000 
M33.427139,28.048954 
	C32.965645,28.525614 32.240707,28.931614 32.090462,29.491756 
	C31.573526,31.419033 31.257534,33.400208 30.864975,35.360844 
	C32.704796,34.931652 34.978848,35.037628 36.298271,33.967068 
	C39.506767,31.363745 42.271835,28.213938 45.215748,25.284485 
	C47.807171,22.705791 50.398899,20.127399 54.000748,16.543713 
	C54.000748,20.390648 53.621788,22.611708 54.135406,24.602484 
	C54.471786,25.906288 56.100094,26.876778 57.149769,27.996552 
	C58.099518,26.944847 59.806934,25.936224 59.869606,24.834078 
	C60.161633,19.698366 60.225895,14.519382 59.832588,9.397264 
	C59.739349,8.182987 57.633274,6.255462 56.337215,6.155299 
	C51.380711,5.772247 46.363575,5.804445 41.400536,6.142905 
	C40.206097,6.224361 39.132523,8.078196 38.003365,9.116945 
	C39.212151,10.077866 40.306938,11.599838 41.655312,11.873814 
	C43.919346,12.333843 46.344749,11.999703 49.665104,11.999703 
	C43.854778,17.755898 38.909908,22.654703 33.427139,28.048954 
z"/>
<path fill="#FFFFFF" opacity="1.000000" stroke="none" 
	d="
M39.946556,54.000000 
	C53.935249,54.000000 53.999966,53.934212 54.000004,40.212257 
	C54.000008,37.922501 54.000000,35.632748 54.000000,33.189365 
	C56.144398,33.189365 57.880840,33.189365 59.996544,33.189365 
	C59.996544,39.323437 60.192707,45.285507 59.929863,51.227276 
	C59.744411,55.419540 54.548256,59.942833 50.185898,59.973015 
	C38.706169,60.052441 27.224939,60.067749 15.745539,59.967480 
	C10.933990,59.925453 6.066637,54.995743 6.028944,50.163071 
	C5.939406,38.683495 5.941587,27.202293 6.030264,15.722702 
	C6.063717,11.392056 10.678798,6.234085 14.863708,6.063869 
	C20.801401,5.822361 26.756247,6.002571 32.846382,6.002571 
	C32.846382,8.064450 32.846382,9.690056 32.846382,12.000010 
	C28.537329,12.000010 24.121704,11.970171 19.706646,12.007520 
	C14.115379,12.054818 12.035916,14.099008 12.010880,19.664507 
	C11.970463,28.648888 11.956693,37.633873 12.016491,46.618038 
	C12.051645,51.899670 14.146723,53.943241 19.490160,53.986923 
	C26.144974,54.041328 32.800568,53.999992 39.946556,54.000000 
z"/>
<path fill="#FFFFFF" opacity="1.000000" stroke="none" 
	d="
M33.696087,27.801231 
	C38.909908,22.654703 43.854778,17.755898 49.665104,11.999703 
	C46.344749,11.999703 43.919346,12.333843 41.655312,11.873814 
	C40.306938,11.599838 39.212151,10.077866 38.003365,9.116945 
	C39.132523,8.078196 40.206097,6.224361 41.400536,6.142905 
	C46.363575,5.804445 51.380711,5.772247 56.337215,6.155299 
	C57.633274,6.255462 59.739349,8.182987 59.832588,9.397264 
	C60.225895,14.519382 60.161633,19.698366 59.869606,24.834078 
	C59.806934,25.936224 58.099518,26.944847 57.149769,27.996552 
	C56.100094,26.876778 54.471786,25.906288 54.135406,24.602484 
	C53.621788,22.611708 54.000748,20.390648 54.000748,16.543713 
	C50.398899,20.127399 47.807171,22.705791 45.215748,25.284485 
	C42.271835,28.213938 39.506767,31.363745 36.298271,33.967068 
	C34.978848,35.037628 32.704796,34.931652 30.864975,35.360844 
	C31.257534,33.400208 31.573526,31.419033 32.090462,29.491756 
	C32.240707,28.931614 32.965645,28.525614 33.696087,27.801231 
z"/>
</svg>